<svg width="91" height="90" viewBox="0 0 91 90" fill="none" xmlns="http://www.w3.org/2000/svg">
<g id="overload">
<g id="Group">
<path id="Vector" d="M12.3882 45.5284L17.5891 82.6956H52.4136L57.6146 45.5284H12.3882Z" fill="#DEE1EC"/>
<path id="Vector_2" style="mix-blend-mode:multiply" d="M56.948 50.298L57.6146 45.5284H12.3882L13.0567 50.298H56.948Z" fill="url(#paint0_linear_135_38221)"/>
<path id="Vector_3" d="M60.7295 42.6564V45.5284H9.27295V42.6564C9.27295 42.02 9.52575 41.4097 9.97575 40.9597C10.4258 40.5097 11.0361 40.2569 11.6725 40.2569H11.8685C12.1202 41.0236 12.6076 41.6912 13.2612 42.1645C13.9147 42.6378 14.7011 42.8926 15.508 42.8926C16.3149 42.8926 17.1013 42.6378 17.7548 42.1645C18.4084 41.6912 18.8958 41.0236 19.1475 40.2569H21.6764C22.2004 40.8036 22.8297 41.2386 23.5262 41.5358C24.2227 41.8329 24.9722 41.9861 25.7295 41.9861C26.4868 41.9861 27.2363 41.8329 27.9328 41.5358C28.6294 41.2386 29.2586 40.8036 29.7826 40.2569H58.3299C58.9663 40.2569 59.5767 40.5097 60.0267 40.9597C60.4767 41.4097 60.7295 42.02 60.7295 42.6564Z" fill="#DEE1EC"/>
<path id="Vector_4" d="M85.5851 24.0679H61.4546V16.1656H85.5851" fill="#DEE1EC"/>
<path id="Vector_5" d="M39.8557 29.2414H32.5571C32.5608 25.854 33.9083 22.6064 36.3039 20.2115C38.6996 17.8166 41.9476 16.4701 45.335 16.4675H57.6188V23.766H45.335C43.8833 23.7686 42.4917 24.3462 41.4648 25.3724C40.4379 26.3985 39.8593 27.7897 39.8557 29.2414Z" fill="#A9AFC4"/>
<path id="Vector_6" d="M61.4532 13.9778H57.6147V26.4929H61.4532V13.9778Z" fill="#0A6CF5"/>
<path id="Vector_7" d="M50.2355 9.09636V16.4675H47.2949V9.01794C47.7271 9.30872 48.2331 9.4705 48.7538 9.48439C49.2745 9.49827 49.7885 9.36369 50.2355 9.09636Z" fill="#F5F5F5"/>
<path id="Vector_8" d="M48.1108 9.39435L40.9494 10.4177C40.5287 10.505 40.0938 10.4975 39.6764 10.3958C39.2589 10.2941 38.8693 10.1007 38.5359 9.82963C38.2025 9.55856 37.9337 9.21664 37.7489 8.8287C37.5642 8.44076 37.4681 8.01655 37.4678 7.58686V6.04795C37.468 5.62393 37.5614 5.20515 37.7414 4.82123C37.9214 4.43732 38.1836 4.09766 38.5094 3.82628C38.8352 3.55491 39.2167 3.35845 39.6268 3.25081C40.0369 3.14318 40.4657 3.127 40.8828 3.20341L48.0794 4.11304C47.5057 4.2801 47.0022 4.62982 46.6454 5.1091C46.2885 5.58837 46.0978 6.17101 46.1023 6.76852C46.1067 7.36603 46.306 7.94577 46.6699 8.41969C47.0339 8.89361 47.5425 9.23582 48.1186 9.39435H48.1108ZM60.1751 6.04795V7.58686C60.1747 8.01545 60.0791 8.43859 59.8951 8.82569C59.7112 9.21278 59.4434 9.55414 59.1114 9.82507C58.7793 10.096 58.3911 10.2897 57.975 10.3922C57.5588 10.4947 57.1251 10.5034 56.7052 10.4177L49.5438 9.39435C50.1198 9.23539 50.6282 8.8928 50.9917 8.41861C51.3553 7.94442 51.5542 7.36454 51.5582 6.76703C51.5622 6.16953 51.3711 5.58704 51.0139 5.10804C50.6567 4.62903 50.1529 4.27968 49.5791 4.11304L56.7698 3.20341C57.1862 3.12861 57.6139 3.14601 58.0228 3.25438C58.4317 3.36276 58.8119 3.55948 59.1366 3.83068C59.4612 4.10188 59.7225 4.44097 59.9019 4.82406C60.0813 5.20715 60.1746 5.62492 60.1751 6.04795Z" fill="#DEE1EC"/>
<path id="Vector_9" d="M85.5853 24.656H60.8667V15.5774H85.5853V16.7537H62.0429V23.4798H85.5853V24.656Z" fill="#5E6175"/>
<path id="Vector_10" d="M40.4435 29.8295H31.9688V29.2414C31.9729 25.6982 33.3826 22.3013 35.8884 19.7962C38.3942 17.2911 41.7915 15.8824 45.3347 15.8793H58.2067V24.3541H45.3347C44.0397 24.3578 42.7987 24.8738 41.8829 25.7896C40.9672 26.7053 40.4511 27.9463 40.4475 29.2414L40.4435 29.8295ZM33.1587 28.6533H39.2948C39.4439 27.1544 40.1444 25.7643 41.2605 24.7526C42.3765 23.7409 43.8284 23.1797 45.3347 23.1779H57.0305V17.0556H45.3347C42.205 17.0583 39.1961 18.2635 36.9299 20.422C34.6637 22.5806 33.3136 25.5274 33.1587 28.6533Z" fill="#5E6175"/>
<path id="Vector_11" d="M62.0408 27.0811H57.0261V13.3897H62.0408V27.0811ZM58.2023 25.9048H60.8645V14.5659H58.2023V25.9048ZM50.8234 17.0556H46.7065V7.91034L47.624 8.53179C47.9638 8.76029 48.3615 8.88736 48.7708 8.89812C49.1801 8.90888 49.584 8.8029 49.9353 8.59256L50.8234 8.04953V17.0556ZM47.8828 15.8794H49.6471V9.97268C49.0665 10.1185 48.4575 10.107 47.8828 9.93935V15.8794Z" fill="#5E6175"/>
<path id="Vector_12" d="M40.3571 11.0685C39.4346 11.067 38.5503 10.6995 37.8983 10.0468C37.2464 9.3941 36.8799 8.50942 36.8794 7.58687V6.04795C36.8796 5.5392 36.9912 5.03667 37.2065 4.57572C37.4218 4.11476 37.7355 3.70659 38.1255 3.37992C38.5155 3.05326 38.9724 2.81603 39.464 2.68494C39.9555 2.55386 40.4699 2.53209 40.9707 2.62118L51.0197 3.89348L48.2301 4.67764C47.7807 4.80995 47.3867 5.08498 47.1075 5.46115C46.8283 5.83732 46.6793 6.29416 46.6828 6.76258C46.6863 7.23101 46.8423 7.68554 47.1271 8.05744C47.412 8.42934 47.8101 8.69838 48.2615 8.82388L51.0393 9.56491C39.669 11.196 40.6532 11.0685 40.3571 11.0685ZM40.3571 3.74253C39.7459 3.74305 39.1598 3.98611 38.7275 4.41834C38.2953 4.85058 38.0522 5.43668 38.0517 6.04795V7.58687C38.0522 7.92918 38.1289 8.2671 38.2761 8.57612C38.4234 8.88515 38.6375 9.15754 38.9031 9.37354C39.1686 9.58955 39.4789 9.74377 39.8115 9.82502C40.144 9.90626 40.4904 9.9125 40.8257 9.84328C40.8845 9.83152 40.5904 9.87465 46.4069 9.04344C45.8252 8.43034 45.4982 7.61913 45.492 6.774C45.4858 5.92887 45.8009 5.11295 46.3736 4.4914C40.0062 3.68371 40.5336 3.74253 40.3611 3.74253H40.3571Z" fill="#5E6175"/>
<path id="Vector_13" d="M57.2928 11.0685C56.9792 11.0685 57.6379 11.1469 46.6244 9.57076L49.3885 8.82581C49.8398 8.7001 50.2378 8.43087 50.5225 8.05883C50.8071 7.6868 50.9629 7.2322 50.9662 6.76378C50.9695 6.29536 50.8202 5.83859 50.5409 5.46256C50.2615 5.08652 49.8673 4.81167 49.4179 4.67957L46.6283 3.89541L56.6792 2.62312C57.1793 2.53569 57.6925 2.55863 58.1828 2.69033C58.6731 2.82203 59.1287 3.05931 59.5177 3.38556C59.9067 3.7118 60.2197 4.11912 60.4348 4.57901C60.6498 5.0389 60.7618 5.54024 60.7628 6.04793V7.58684C60.7622 8.50804 60.3969 9.39154 59.7466 10.044C59.0963 10.6965 58.214 11.0649 57.2928 11.0685ZM51.2293 9.04342L56.8125 9.84326C57.1478 9.91285 57.4944 9.90688 57.8271 9.82578C58.1598 9.74468 58.4702 9.59049 58.7359 9.37441C59.0015 9.15832 59.2157 8.88578 59.3628 8.57658C59.51 8.26737 59.5864 7.92927 59.5865 7.58684V6.04793C59.5863 5.71009 59.5118 5.37643 59.3684 5.07056C59.225 4.76469 59.0161 4.49407 58.7565 4.27787C58.4969 4.06167 58.193 3.90516 57.8662 3.81942C57.5394 3.73368 57.1978 3.72081 56.8655 3.78171L51.2646 4.49137C51.837 5.11318 52.1518 5.92923 52.1453 6.77436C52.1387 7.61949 51.8113 8.43056 51.2293 9.04342ZM20.7648 23.5013C20.3665 23.4994 19.9778 23.3795 19.6476 23.1568C19.3174 22.9341 19.0607 22.6186 18.9097 22.2501C18.7587 21.8815 18.7203 21.4765 18.7993 21.0862C18.8784 20.6959 19.0713 20.3377 19.3537 20.0569C19.6361 19.7761 19.9954 19.5853 20.3862 19.5086C20.777 19.4318 21.1817 19.4726 21.5494 19.6257C21.917 19.7788 22.2311 20.0374 22.4518 20.3689C22.6726 20.7003 22.7902 21.0898 22.7899 21.488C22.7893 21.7533 22.7365 22.0158 22.6344 22.2606C22.5323 22.5054 22.383 22.7277 22.1949 22.9147C22.0068 23.1017 21.7836 23.2498 21.5382 23.3504C21.2928 23.4511 21.03 23.5024 20.7648 23.5013ZM20.7648 20.649C20.5988 20.649 20.4366 20.6982 20.2986 20.7904C20.1606 20.8826 20.0531 21.0136 19.9896 21.1669C19.9261 21.3202 19.9095 21.4889 19.9418 21.6517C19.9742 21.8145 20.0541 21.964 20.1715 22.0813C20.2888 22.1987 20.4383 22.2786 20.6011 22.3109C20.7638 22.3433 20.9325 22.3267 21.0859 22.2632C21.2392 22.1997 21.3702 22.0921 21.4624 21.9542C21.5546 21.8162 21.6038 21.654 21.6038 21.488C21.6038 21.2655 21.5154 21.0521 21.3581 20.8947C21.2007 20.7374 20.9873 20.649 20.7648 20.649ZM72.3624 43.4798C71.7909 43.4798 71.2322 43.3103 70.757 42.9928C70.2818 42.6753 69.9115 42.224 69.6928 41.6959C69.474 41.1679 69.4168 40.5869 69.5283 40.0264C69.6398 39.4659 69.915 38.951 70.3191 38.5469C70.7233 38.1427 71.2381 37.8675 71.7987 37.756C72.3592 37.6445 72.9402 37.7018 73.4682 37.9205C73.9962 38.1392 74.4475 38.5095 74.7651 38.9847C75.0826 39.4599 75.252 40.0186 75.252 40.5901C75.251 41.3562 74.9462 42.0906 74.4045 42.6323C73.8629 43.1739 73.1285 43.4787 72.3624 43.4798ZM72.3624 38.8767C72.0235 38.8767 71.6923 38.9772 71.4105 39.1655C71.1287 39.3538 70.9091 39.6214 70.7795 39.9344C70.6498 40.2475 70.6158 40.592 70.682 40.9244C70.7481 41.2568 70.9113 41.5621 71.1509 41.8017C71.3905 42.0413 71.6958 42.2045 72.0282 42.2706C72.3605 42.3367 72.705 42.3028 73.0181 42.1731C73.3312 42.0434 73.5988 41.8238 73.7871 41.542C73.9753 41.2603 74.0758 40.929 74.0758 40.5901C74.0748 40.1362 73.8939 39.7012 73.5727 39.3804C73.2516 39.0596 72.8163 38.8792 72.3624 38.8787V38.8767Z" fill="#5E6175"/>
<path id="Vector_14" d="M70.7158 79.9706C70.7153 79.3691 70.5158 78.7847 70.1484 78.3085C69.7811 77.8323 69.2664 77.491 68.6848 77.3378C68.6987 76.8558 68.6032 76.3769 68.4055 75.9371C68.2078 75.4972 67.913 75.108 67.5432 74.7984C67.1734 74.4889 66.7383 74.2672 66.2706 74.1499C65.8028 74.0327 65.3146 74.023 64.8426 74.1215C64.3705 74.22 63.9269 74.4242 63.5451 74.7188C63.1633 75.0133 62.8532 75.3906 62.6382 75.8222C62.4231 76.2537 62.3086 76.7285 62.3033 77.2107C62.298 77.6928 62.402 78.17 62.6076 78.6062C61.6662 78.7998 60.8204 79.3125 60.2132 80.0576C59.606 80.8026 59.2746 81.7344 59.2749 82.6956L68.2163 82.6838C68.8974 82.6277 69.5325 82.3176 69.9955 81.815C70.4585 81.3123 70.7156 80.654 70.7158 79.9706Z" fill="#F5F5F5"/>
<path id="Vector_15" d="M58.6792 83.2758V82.6877C58.6813 81.706 58.9857 80.7487 59.5512 79.9461C60.1166 79.1436 60.9156 78.5347 61.8394 78.2023C61.7062 77.6961 61.6796 77.1677 61.7612 76.6506C61.8428 76.1335 62.0309 75.639 62.3136 75.1984C62.5962 74.7577 62.9673 74.3806 63.4032 74.0908C63.8392 73.8011 64.3306 73.605 64.8463 73.5149C65.362 73.4249 65.8908 73.443 66.3991 73.5679C66.9075 73.6929 67.3844 73.922 67.7996 74.2408C68.2148 74.5596 68.5593 74.9612 68.8113 75.42C69.0632 75.8789 69.2172 76.3851 69.2634 76.9065C69.9591 77.1892 70.538 77.7001 70.905 78.3553C71.272 79.0105 71.4052 79.771 71.2827 80.5119C71.1602 81.2528 70.7894 81.9301 70.2311 82.4323C69.6729 82.9346 68.9603 83.2321 68.2107 83.2758H58.6792ZM65.4955 74.6501C65.057 74.6509 64.6259 74.7623 64.2419 74.9741C63.858 75.1859 63.5337 75.4911 63.2991 75.8616C63.0646 76.232 62.9273 76.6557 62.9 77.0933C62.8727 77.5309 62.9563 77.9683 63.143 78.365L63.4645 79.0433L62.7294 79.1923C62.0206 79.3364 61.3718 79.6909 60.8678 80.2096C60.3638 80.7283 60.0281 81.387 59.9044 82.0996H68.1832C68.6844 82.0563 69.1541 81.8373 69.5095 81.4812C69.8648 81.1251 70.0829 80.6549 70.1251 80.1536C70.1673 79.6523 70.031 79.1523 69.7402 78.7418C69.4495 78.3313 69.023 78.0367 68.5361 77.9102L68.0754 77.7867L68.0891 77.3182C68.0975 76.9718 68.0366 76.6272 67.9102 76.3046C67.7837 75.982 67.5942 75.6879 67.3527 75.4394C67.1111 75.191 66.8225 74.9932 66.5036 74.8576C66.1847 74.7221 65.842 74.6515 65.4955 74.6501Z" fill="#5E6175"/>
<path id="Vector_16" d="M83.9117 82.1075H9.53223V83.2837H83.9117V82.1075Z" fill="#5E6175"/>
<path id="Vector_17" d="M7.37521 80.2274C6.87174 80.2274 6.38886 80.0275 6.03267 79.6717C5.67647 79.3159 5.47611 78.8332 5.47559 78.3298C5.47594 77.4492 5.65605 76.578 6.00489 75.7695L7.37717 72.5936L8.74945 75.7695C9.09829 76.578 9.2784 77.4492 9.27876 78.3298C9.27876 78.5795 9.22948 78.8267 9.13374 79.0573C9.03801 79.2879 8.8977 79.4974 8.72087 79.6737C8.54403 79.85 8.33414 79.9896 8.10322 80.0847C7.87231 80.1797 7.62491 80.2282 7.37521 80.2274ZM68.1613 65.3696C67.658 65.3696 67.1753 65.1696 66.8194 64.8138C66.4635 64.4579 66.2636 63.9752 66.2636 63.4719C66.2633 62.5915 66.4428 61.7203 66.7909 60.9116L68.1632 57.7358L69.5355 60.9116C69.8843 61.7201 70.0644 62.5913 70.0648 63.4719C70.0648 63.7216 70.0155 63.9688 69.9198 64.1995C69.8241 64.4301 69.6837 64.6395 69.5069 64.8158C69.3301 64.9921 69.1202 65.1318 68.8893 65.2268C68.6584 65.3218 68.411 65.3703 68.1613 65.3696Z" fill="#F5F5F5"/>
<path id="Vector_18" d="M68.1616 65.9577C67.5033 65.9566 66.8722 65.695 66.4064 65.2299C65.9405 64.7648 65.6779 64.1341 65.6758 63.4758C65.6748 62.515 65.8709 61.5642 66.2521 60.6823L68.1616 56.2557L70.073 60.6823C70.4542 61.5642 70.6503 62.515 70.6493 63.4758C70.6472 64.1344 70.3843 64.7654 69.918 65.2305C69.4518 65.6957 68.8202 65.9572 68.1616 65.9577ZM68.1616 59.2198L67.3323 61.1449C67.0135 61.8806 66.85 62.6741 66.852 63.4758C66.8651 63.8146 67.0089 64.1352 67.2533 64.3702C67.4976 64.6053 67.8235 64.7366 68.1625 64.7366C68.5016 64.7366 68.8275 64.6053 69.0718 64.3702C69.3162 64.1352 69.46 63.8146 69.4731 63.4758C69.4745 62.6754 69.311 61.8833 68.9928 61.1488L68.1616 59.2198Z" fill="#5E6175"/>
<path id="Vector_19" d="M58.5907 36.487H31.2197C30.9568 35.2225 30.2663 34.0872 29.2644 33.2722C28.2625 32.4571 27.0103 32.0122 25.7188 32.0122C24.4273 32.0122 23.1751 32.4571 22.1732 33.2722C21.1713 34.0872 20.4808 35.2225 20.2179 36.487H12.1313C10.3669 36.4896 8.67556 37.1917 7.42796 38.4393C6.18037 39.6869 5.47833 41.3782 5.47573 43.1426V63.6444C5.46969 64.1331 5.64787 64.6062 5.97481 64.9694C6.30174 65.3327 6.75347 65.5595 7.24009 65.6048C7.49967 65.622 7.76 65.5857 8.005 65.4982C8.24999 65.4108 8.47443 65.2739 8.66443 65.0962C8.85443 64.9186 9.00596 64.7038 9.10963 64.4652C9.21329 64.2266 9.2669 63.9693 9.26714 63.7091V42.6564C9.26689 42.3414 9.32871 42.0294 9.44908 41.7383C9.56946 41.4472 9.74602 41.1826 9.96868 40.9598C10.1913 40.737 10.4557 40.5602 10.7467 40.4396C11.0378 40.319 11.3497 40.2569 11.6647 40.2569H11.8607C12.1125 41.0236 12.5999 41.6912 13.2534 42.1645C13.907 42.6378 14.6933 42.8926 15.5002 42.8926C16.3072 42.8926 17.0935 42.6378 17.747 42.1645C18.4006 41.6912 18.888 41.0236 19.1397 40.2569H21.6686C22.1927 40.8036 22.8219 41.2386 23.5184 41.5358C24.215 41.8329 24.9644 41.9861 25.7217 41.9861C26.479 41.9861 27.2285 41.8329 27.925 41.5358C28.6216 41.2386 29.2508 40.8036 29.7749 40.2569C29.7945 40.2373 58.3535 40.2569 58.3241 40.2569C58.9605 40.2569 59.5709 40.5097 60.0208 40.9597C60.4708 41.4097 60.7237 42.02 60.7237 42.6564V50.9293C60.7237 51.4362 60.925 51.9224 61.2835 52.2808C61.6419 52.6393 62.1281 52.8407 62.635 52.8407C63.142 52.8407 63.6281 52.6393 63.9866 52.2808C64.3451 51.9224 64.5464 51.4362 64.5464 50.9293V42.4368C64.5464 41.655 64.3923 40.8808 64.093 40.1586C63.7936 39.4363 63.3548 38.7802 62.8017 38.2276C62.2486 37.675 61.592 37.2369 60.8694 36.9383C60.1469 36.6396 59.3726 36.4863 58.5907 36.487Z" fill="#F5F5F5"/>
<path id="Vector_20" d="M52.9253 83.2758H17.0775L11.7119 44.9403H58.291L52.9253 83.2758ZM18.1008 82.0996H51.902L56.9383 46.1087H13.0646L18.1008 82.0996Z" fill="#5E6175"/>
<path id="Vector_21" d="M61.3177 46.1185H8.68499V42.6564C8.68603 41.8644 9.00113 41.105 9.5612 40.545C10.1213 39.9849 10.8806 39.6698 11.6726 39.6688H12.2921L12.4254 40.0726C12.6385 40.7216 13.051 41.2868 13.6043 41.6874C14.1575 42.0881 14.8231 42.3038 15.5062 42.3038C16.1893 42.3038 16.8549 42.0881 17.4081 41.6874C17.9614 41.2868 18.3739 40.7216 18.587 40.0726L18.7203 39.6688H21.9255L22.1 39.8491C22.5687 40.3387 23.1316 40.7283 23.7549 40.9945C24.3782 41.2607 25.049 41.398 25.7267 41.398C26.4045 41.398 27.0752 41.2607 27.6985 40.9945C28.3218 40.7283 28.8848 40.3387 29.3535 39.8491L29.5279 39.6688H58.3301C59.1221 39.6698 59.8815 39.9849 60.4415 40.545C61.0016 41.105 61.3167 41.8644 61.3177 42.6564V46.1185ZM9.86123 44.9422H60.1415V42.6564C60.141 42.1762 59.95 41.7157 59.6104 41.3761C59.2708 41.0365 58.8103 40.8455 58.3301 40.845H30.0239C28.869 41.9547 27.3294 42.5745 25.7277 42.5745C24.126 42.5745 22.5864 41.9547 21.4315 40.845H19.5495C19.2042 41.628 18.6389 42.2939 17.9223 42.7618C17.2058 43.2296 16.3687 43.4794 15.513 43.4806C14.6572 43.4819 13.8194 43.2346 13.1015 42.7688C12.3836 42.303 11.8164 41.6388 11.4688 40.8568C11.0267 40.9073 10.6186 41.1185 10.3222 41.4504C10.0258 41.7822 9.86172 42.2115 9.86123 42.6564V44.9422ZM7.37544 80.8155C6.71615 80.815 6.08398 80.553 5.61761 80.087C5.15123 79.621 4.88874 78.989 4.8877 78.3298C4.88668 77.3689 5.08284 76.4181 5.46406 75.5362L7.37544 71.1096L9.28487 75.5362C9.67098 76.417 9.87119 77.368 9.87299 78.3298C9.87222 78.657 9.807 78.9808 9.68107 79.2828C9.55514 79.5848 9.37096 79.8591 9.13904 80.0899C8.90712 80.3207 8.63201 80.5036 8.32941 80.6281C8.02681 80.7526 7.70265 80.8163 7.37544 80.8155ZM7.37544 74.0777L6.54424 76.0028C6.2269 76.7375 6.06344 77.5294 6.06394 78.3298C6.06394 78.6776 6.20211 79.0112 6.44807 79.2571C6.69402 79.5031 7.02761 79.6413 7.37544 79.6413C7.72328 79.6413 8.05686 79.5031 8.30282 79.2571C8.54877 79.0112 8.68695 78.6776 8.68695 78.3298C8.68772 77.5292 8.52355 76.7371 8.20469 76.0028L7.37544 74.0777Z" fill="#5E6175"/>
<path id="Vector_22" d="M7.37755 66.1969C6.70959 66.1886 6.07222 65.9156 5.60541 65.4377C5.13861 64.9599 4.88052 64.3163 4.88785 63.6483V43.1426C4.89044 41.2222 5.65444 39.3813 7.01233 38.0234C8.37022 36.6655 10.2112 35.9015 12.1315 35.8989H19.7771C20.1518 34.6079 20.9356 33.4735 22.0105 32.6662C23.0854 31.8589 24.3934 31.4225 25.7377 31.4225C27.0819 31.4225 28.3899 31.8589 29.4648 32.6662C30.5397 33.4735 31.3235 34.6079 31.6982 35.8989H58.591C60.3253 35.8994 61.9886 36.5882 63.2155 37.814C64.4424 39.0399 65.1327 40.7025 65.1348 42.4368V50.9293C65.1348 51.5906 64.8721 52.2249 64.4044 52.6925C63.9368 53.1602 63.3025 53.4229 62.6412 53.4229C61.9798 53.4229 61.3455 53.1602 60.8779 52.6925C60.4103 52.2249 60.1475 51.5906 60.1475 50.9293V42.6564C60.1465 42.1763 59.9553 41.7162 59.6158 41.3767C59.2764 41.0372 58.8162 40.846 58.3361 40.845H30.0241C28.8693 41.9552 27.3297 42.5753 25.7278 42.5753C24.126 42.5753 22.5864 41.9552 21.4316 40.845H19.5497C19.2043 41.628 18.639 42.2939 17.9225 42.7618C17.2059 43.2296 16.3689 43.4794 15.5131 43.4806C14.6573 43.4819 13.8196 43.2346 13.1017 42.7688C12.3837 42.303 11.8165 41.6388 11.4689 40.8568C11.027 40.9073 10.6192 41.1187 10.3231 41.4505C10.027 41.7824 9.86334 42.2116 9.86334 42.6564V63.7091C9.86334 64.3686 9.6015 65.001 9.13538 65.4675C8.66927 65.934 8.037 66.1963 7.37755 66.1969ZM12.1315 37.0752C10.5231 37.0777 8.98136 37.7178 7.84406 38.8551C6.70676 39.9924 6.06668 41.5342 6.06409 43.1426V63.6444C6.05402 63.9043 6.12112 64.1614 6.25694 64.3833C6.39275 64.6051 6.59121 64.7818 6.82728 64.891C7.06335 65.0003 7.32648 65.0372 7.58349 64.9971C7.8405 64.957 8.07989 64.8417 8.27149 64.6658C8.40299 64.5436 8.50778 64.3955 8.57931 64.2309C8.65083 64.0663 8.68753 63.8886 8.6871 63.7091V42.6564C8.68762 41.8645 9.00228 41.1052 9.56204 40.5451C10.1218 39.985 10.8809 39.6698 11.6728 39.6688H12.2923L12.4256 40.0746C12.6386 40.7236 13.0512 41.2887 13.6044 41.6894C14.1576 42.0901 14.8233 42.3058 15.5063 42.3058C16.1894 42.3058 16.855 42.0901 17.4083 41.6894C17.9615 41.2887 18.3741 40.7236 18.5871 40.0746L18.7204 39.6688H21.9257L22.0982 39.8511C22.5673 40.3399 23.1304 40.7289 23.7536 40.9946C24.3769 41.2603 25.0474 41.3973 25.7249 41.3973C26.4024 41.3973 27.073 41.2603 27.6962 40.9946C28.3194 40.7289 28.8825 40.3399 29.3516 39.8511L29.5261 39.6688H58.3302C59.1223 39.6698 59.8816 39.9849 60.4417 40.545C61.0017 41.105 61.3168 41.8644 61.3179 42.6564V50.9293C61.3179 51.2795 61.457 51.6153 61.7046 51.8629C61.9522 52.1105 62.288 52.2496 62.6382 52.2496C62.9884 52.2496 63.3242 52.1105 63.5718 51.8629C63.8194 51.6153 63.9585 51.2795 63.9585 50.9293V42.4368C63.957 41.0153 63.3916 39.6524 62.3864 38.6473C61.3812 37.6421 60.0184 37.0767 58.5969 37.0752H30.7592L30.6632 36.6066C30.4282 35.474 29.8101 34.457 28.9129 33.7269C28.0157 32.9967 26.8944 32.5981 25.7377 32.5981C24.5809 32.5981 23.4596 32.9967 22.5624 33.7269C21.6652 34.457 21.0471 35.474 20.8122 36.6066L20.7141 37.0752H12.1315Z" fill="#5E6175"/>
<path id="Vector_23" d="M35.0092 89.4119C42.2741 89.4119 48.1635 83.5225 48.1635 76.2576C48.1635 68.9927 42.2741 63.1034 35.0092 63.1034C27.7443 63.1034 21.855 68.9927 21.855 76.2576C21.855 83.5225 27.7443 89.4119 35.0092 89.4119Z" fill="#F5F5F5"/>
<path id="Vector_24" d="M35.009 90C32.291 90 29.6341 89.194 27.3741 87.684C25.1142 86.174 23.3528 84.0277 22.3127 81.5166C21.2726 79.0055 21.0004 76.2424 21.5307 73.5766C22.0609 70.9109 23.3698 68.4622 25.2917 66.5403C27.2136 64.6184 29.6622 63.3095 32.328 62.7793C34.9938 62.249 37.7569 62.5212 40.268 63.5613C42.7791 64.6014 44.9253 66.3628 46.4354 68.6228C47.9454 70.8827 48.7514 73.5396 48.7514 76.2576C48.7472 79.9011 47.298 83.3941 44.7217 85.9704C42.1454 88.5467 38.6524 89.9959 35.009 90ZM35.009 63.6934C32.5236 63.6934 30.0939 64.4305 28.0274 65.8113C25.9609 67.1922 24.3502 69.1549 23.3992 71.4512C22.4482 73.7475 22.1994 76.2742 22.6844 78.7118C23.1695 81.1495 24.3665 83.3886 26.1241 85.1459C27.8817 86.9032 30.1209 88.0999 32.5587 88.5845C34.9964 89.0692 37.5231 88.82 39.8192 87.8686C42.1153 86.9172 44.0778 85.3063 45.4583 83.2395C46.8389 81.1728 47.5755 78.7431 47.5751 76.2576C47.5715 72.9262 46.2463 69.7322 43.8905 67.3767C41.5346 65.0212 38.3404 63.6965 35.009 63.6934Z" fill="#5E6175"/>
<path id="Vector_25" d="M38.4882 69.257L28.0278 79.7173L31.5696 83.2591L42.0299 72.7987L38.4882 69.257Z" fill="#0A6CF5"/>
<path id="Vector_26" d="M31.5686 69.257L28.0269 72.7987L38.4872 83.2591L42.029 79.7173L31.5686 69.257Z" fill="#0A6CF5"/>
<path id="Vector_27" d="M48.8197 9.48844C50.3334 9.48844 51.5604 8.26142 51.5604 6.74781C51.5604 5.2342 50.3334 4.00717 48.8197 4.00717C47.3061 4.00717 46.0791 5.2342 46.0791 6.74781C46.0791 8.26142 47.3061 9.48844 48.8197 9.48844Z" fill="#F5F5F5"/>
<path id="Vector_28" d="M48.82 10.0766C48.1608 10.0766 47.5165 9.88112 46.9684 9.51492C46.4204 9.14872 45.9932 8.62823 45.741 8.01926C45.4887 7.41029 45.4228 6.7402 45.5513 6.09373C45.6799 5.44725 45.9973 4.85343 46.4634 4.38734C46.9295 3.92126 47.5233 3.60385 48.1698 3.47526C48.8163 3.34667 49.4864 3.41267 50.0953 3.66491C50.7043 3.91715 51.2248 4.34431 51.591 4.89237C51.9572 5.44042 52.1527 6.08476 52.1527 6.7439C52.1527 7.62778 51.8015 8.47546 51.1765 9.10046C50.5515 9.72546 49.7039 10.0766 48.82 10.0766ZM48.82 4.58746C48.3935 4.58746 47.9766 4.71394 47.6219 4.95089C47.2673 5.18784 46.9909 5.52463 46.8277 5.91867C46.6645 6.31271 46.6218 6.74629 46.705 7.1646C46.7882 7.58291 46.9936 7.96715 47.2952 8.26873C47.5967 8.57032 47.981 8.7757 48.3993 8.8589C48.8176 8.94211 49.2512 8.89941 49.6452 8.73619C50.0393 8.57297 50.376 8.29658 50.613 7.94195C50.8499 7.58733 50.9764 7.1704 50.9764 6.7439C50.9743 6.17334 50.7462 5.62685 50.342 5.22414C49.9379 4.82142 49.3905 4.5953 48.82 4.59531V4.58746Z" fill="#5E6175"/>
<path id="Vector_29" d="M19.7477 70.004L18.6577 69.5531C18.8032 69.1696 18.9715 68.7952 19.1615 68.4317L20.2045 68.9728C20.0309 69.3067 19.8784 69.6511 19.7477 70.004ZM49.8849 68.663C49.7026 68.3317 49.5085 68.0024 49.2968 67.6828L50.2887 67.0496C50.5044 67.3868 50.7141 67.7397 50.9082 68.0945L49.8849 68.663ZM21.1709 67.3535L20.1907 66.6968C20.4162 66.3635 20.6554 66.0322 20.9043 65.7166L21.8336 66.438C21.614 66.7321 21.3827 67.0418 21.1709 67.3535ZM48.197 66.1498C47.9598 65.8558 47.7088 65.5617 47.454 65.2912L48.3146 64.4913C48.5891 64.7873 48.8576 65.0951 49.1125 65.4107L48.197 66.1498ZM23.0784 65.0049L22.2354 64.1835C22.5197 63.8934 22.8236 63.6111 23.1117 63.3425L23.8959 64.2169C23.6195 64.4678 23.3431 64.7344 23.0784 65.0049ZM46.0896 63.9777C45.8033 63.7307 45.5014 63.4915 45.2054 63.2661L45.9112 62.3251C46.2327 62.5662 46.5522 62.823 46.858 63.0857L46.0896 63.9777ZM25.376 63.0328L24.6918 62.0761C25.0212 61.8409 25.3623 61.6135 25.7053 61.4037L26.3229 62.4035C26.0033 62.6015 25.6838 62.8132 25.376 63.0328ZM43.6293 62.2173C43.3038 62.0212 42.9666 61.8428 42.6314 61.6742L43.1568 60.6235C43.5156 60.8019 43.8763 60.9979 44.2252 61.2018L43.6293 62.2173ZM27.9872 61.5037L27.4952 60.4392C27.8598 60.2667 28.2362 60.1059 28.6126 59.9589L29.04 61.0547C28.6714 61.192 28.3284 61.3429 27.9872 61.5037ZM40.8925 60.9273C40.5377 60.7979 40.175 60.6803 39.8143 60.5744L40.1397 59.4453C40.5318 59.557 40.9239 59.6844 41.2964 59.8217L40.8925 60.9273ZM30.8279 60.4686L30.526 59.3296C30.918 59.2277 31.3101 59.1336 31.712 59.0591L31.9355 60.2157C31.5689 60.2863 31.1945 60.3706 30.8279 60.4686ZM37.9637 60.153C37.5932 60.0902 37.2148 60.0373 36.8384 60L36.958 58.8238C37.3501 58.865 37.7637 58.9199 38.1617 58.9865L37.9637 60.153ZM33.8116 59.9569L33.7214 58.7807C34.1135 58.7493 34.5311 58.7317 34.9349 58.7278L34.9467 59.904C34.5722 59.9177 34.1899 59.9334 33.8155 59.9628L33.8116 59.9569Z" fill="#A9AFC4"/>
</g>
</g>
<defs>
<linearGradient id="paint0_linear_135_38221" x1="35.0014" y1="42.382" x2="35.0014" y2="55.5421" gradientUnits="userSpaceOnUse">
<stop stop-color="#CACFDD"/>
<stop offset="1" stop-color="#EEF0F1"/>
</linearGradient>
</defs>
</svg>
